HIERARCHY
ROOT root
{
	OFFSET 0.000000 0.000000 0.000000
	CHANNELS 6 Xposition Yposition Zposition Zrotation Yrotation Xrotation
	JOINT lhip
	{
		OFFSET 0.058581 -0.082280 -0.017664
		CHANNELS 3 Zrotation Yrotation Xrotation
		JOINT lknee
		{
			OFFSET 0.043451 -0.386469 0.008037
			CHANNELS 3 Zrotation Yrotation Xrotation
			JOINT lankle
			{
				OFFSET -0.014790 -0.426874 -0.037428
				CHANNELS 3 Zrotation Yrotation Xrotation
				JOINT ltoe
				{
					OFFSET 0.041054 -0.060286 0.122042
					CHANNELS 3 Zrotation Yrotation Xrotation
					End Site
					{
						OFFSET 0.000000 0.000000 0.000000
					}
				}
			}
		}
	}
	JOINT rhip
	{
		OFFSET -0.060310 -0.090513 -0.013543
		CHANNELS 3 Zrotation Yrotation Xrotation
		JOINT rknee
		{
			OFFSET -0.043257 -0.383688 -0.004843
			CHANNELS 3 Zrotation Yrotation Xrotation
			JOINT rankle
			{
				OFFSET 0.019056 -0.420046 -0.034562
				CHANNELS 3 Zrotation Yrotation Xrotation
				JOINT rtoe
				{
					OFFSET -0.034840 -0.062106 0.130323
					CHANNELS 3 Zrotation Yrotation Xrotation
					End Site
					{
						OFFSET 0.000000 0.000000 0.000000
					}
				}
			}
		}
	}
	JOINT lowerback
	{
		OFFSET 0.004439 0.124404 -0.038385
		CHANNELS 3 Zrotation Yrotation Xrotation
		JOINT upperback
		{
			OFFSET 0.004488 0.137956 0.026820
			CHANNELS 3 Zrotation Yrotation Xrotation
			JOINT chest
			{
				OFFSET -0.002265 0.056032 0.002855
				CHANNELS 3 Zrotation Yrotation Xrotation
				JOINT lowerneck
				{
					OFFSET -0.013390 0.211636 -0.033468
					CHANNELS 3 Zrotation Yrotation Xrotation
					JOINT upperneck
					{
						OFFSET 0.010113 0.088937 0.050410
						CHANNELS 3 Zrotation Yrotation Xrotation
						End Site
						{
							OFFSET 0.000000 0.000000 0.000000
						}
					}
				}
				JOINT lclavicle
				{
					OFFSET 0.071702 0.114000 -0.018898
					CHANNELS 3 Zrotation Yrotation Xrotation
					JOINT lshoulder
					{
						OFFSET 0.122921 0.045205 -0.019046
						CHANNELS 3 Zrotation Yrotation Xrotation
						JOINT lelbow
						{
							OFFSET 0.255332 -0.015649 -0.022946
							CHANNELS 3 Zrotation Yrotation Xrotation
							JOINT lwrist
							{
								OFFSET 0.265709 0.012698 -0.007375
								CHANNELS 3 Zrotation Yrotation Xrotation
								End Site
								{
									OFFSET 0.000000 0.000000 0.000000
								}
							}
						}
					}
				}
				JOINT rclavicle
				{
					OFFSET -0.082954 0.112472 -0.023707
					CHANNELS 3 Zrotation Yrotation Xrotation
					JOINT rshoulder
					{
						OFFSET -0.113228 0.046853 -0.008472
						CHANNELS 3 Zrotation Yrotation Xrotation
						JOINT relbow
						{
							OFFSET -0.260127 -0.014369 -0.031269
							CHANNELS 3 Zrotation Yrotation Xrotation
							JOINT rwrist
							{
								OFFSET -0.269108 0.006794 -0.006027
								CHANNELS 3 Zrotation Yrotation Xrotation
								End Site
								{
									OFFSET 0.000000 0.000000 0.000000
								}
							}
						}
					}
				}
			}
		}
	}
}
MOTION
Frames: 16
Frame Time: 0.033333
0.251918 -0.368936 0.945329 176.739812 -0.178587 93.165287 8.892081 -0.645844 -23.606814 -6.023164 -0.866430 27.252380 0.527063 0.885566 -13.776837 0.000000 -0.000000 0.000000 -9.208669 -5.692727 -24.349043 -0.921761 -7.527342 30.519385 3.923906 1.235396 -14.398953 0.000000 -0.000000 0.000000 2.116017 3.632951 19.795671 2.465132 -4.118486 9.422918 1.244331 -0.827114 -3.784613 1.023864 9.854818 19.556384 4.064581 2.391436 16.028874 -16.192890 -23.859313 1.380387 -75.060451 -25.226188 26.431850 0.432877 -32.652337 10.481754 -9.499065 10.141282 -31.691565 16.391358 21.814565 5.979548 72.667916 22.820272 21.100135 -12.299009 30.837688 -15.886822 6.294013 0.955394 -54.723066 
0.251793 -0.368920 0.945208 176.700529 -0.212972 93.197181 8.898041 -0.715708 -23.643894 -6.045708 -0.494411 27.177782 0.797864 0.983719 -13.639266 0.000000 -0.000000 0.000000 -9.327595 -5.671402 -24.404246 -0.864126 -7.636689 30.578746 3.794639 1.322074 -14.422734 0.000000 -0.000000 0.000000 2.122525 3.691497 19.798637 2.466994 -4.135561 9.346340 1.209681 -0.749984 -3.716373 1.044261 9.848166 19.414624 4.157685 2.279002 16.300370 -16.123538 -23.985075 1.535228 -75.030255 -25.409438 26.257620 0.349165 -32.619687 10.276501 -9.707055 9.981745 -31.321780 16.400776 21.677882 6.152359 72.609342 23.066815 20.918474 -12.203877 30.844707 -15.772100 6.383125 0.949116 -54.404987 
0.251876 -0.368808 0.945178 176.697629 -0.216919 93.163832 8.911669 -0.668668 -23.602986 -6.081514 -0.495067 27.167473 0.789341 0.970019 -13.665225 0.000000 -0.000000 0.000000 -9.316508 -5.633754 -24.381126 -0.896840 -7.656394 30.604023 3.830410 1.318609 -14.366865 0.000000 -0.000000 0.000000 2.123001 3.643508 19.915119 2.451520 -4.129059 9.312832 1.201291 -0.679062 -3.727961 1.062135 9.820678 19.435396 4.215227 2.330296 16.298562 -16.031334 -23.943425 1.431733 -74.994961 -25.394906 26.292213 0.148094 -32.696824 10.519466 -9.602294 9.865353 -31.429639 16.291804 21.641562 6.075392 72.741151 23.121905 21.028171 -12.120583 30.828166 -15.890603 5.870578 0.832893 -54.477466 
0.251724 -0.368633 0.945204 176.719270 -0.202094 93.147646 8.902877 -0.648347 -23.595111 -6.064316 -0.500836 27.201799 0.772701 0.923301 -13.632694 0.000000 -0.000000 0.000000 -9.271473 -5.718077 -24.357855 -0.946542 -7.608799 30.617247 3.839714 1.373281 -14.414801 0.000000 -0.000000 0.000000 2.132515 3.654371 19.972967 2.456800 -4.185736 9.384072 1.252600 -0.612343 -3.775028 1.026950 9.823878 19.541679 4.387376 2.359233 16.192867 -16.031450 -24.130226 1.443587 -75.028391 -25.436442 26.187468 0.321585 -32.670483 10.175311 -9.648134 9.976046 -31.406896 16.228137 21.809591 6.116341 72.593769 23.121023 20.793796 -12.181421 30.954537 -15.777637 6.403051 0.857900 -54.163083 
0.251736 -0.368487 0.945214 176.715674 -0.219078 93.185756 8.878898 -0.669608 -23.645135 -6.065543 -0.547472 27.240637 0.812189 0.997484 -13.625393 0.000000 -0.000000 0.000000 -9.277017 -5.741890 -24.382815 -0.902074 -7.554134 30.583574 3.798757 1.299590 -14.371138 0.000000 -0.000000 0.000000 2.175378 3.668208 19.946821 2.412475 -4.169233 9.400291 1.217365 -0.594436 -3.779307 0.903263 9.702361 19.612005 4.522217 2.305935 16.042101 -16.072528 -24.181498 1.437687 -74.918141 -25.436999 26.137380 0.194741 -32.678016 10.188139 -9.406954 10.180921 -31.340611 16.278620 21.926446 6.189756 72.500756 23.059257 20.698296 -12.282578 31.067593 -15.792340 6.431879 0.813020 -54.055605 
0.251695 -0.368233 0.945254 176.723466 -0.224665 93.234620 8.878693 -0.637993 -23.692013 -6.058244 -0.473978 27.239926 0.784478 0.916228 -13.580441 0.000000 -0.000000 0.000000 -9.260789 -5.770618 -24.410682 -0.953326 -7.558258 30.577914 3.752117 1.324898 -14.395003 0.000000 -0.000000 0.000000 2.219057 3.774401 19.991852 2.412493 -4.101969 9.235154 1.229689 -0.669947 -3.723010 0.975495 9.623020 19.809370 4.572370 2.296704 15.974560 -16.102164 -24.249026 1.565964 -74.878488 -25.562994 26.120028 0.065437 -32.537045 10.374442 -9.662098 10.002582 -31.377934 16.293401 21.897591 6.281721 72.388217 23.165586 20.646756 -12.124162 30.976071 -15.423912 6.428334 0.862007 -54.177940 
0.251738 -0.368097 0.945177 176.672229 -0.238107 93.316509 8.913661 -0.711435 -23.736027 -6.085790 -0.398769 27.201103 0.811639 1.027483 -13.575057 0.000000 -0.000000 0.000000 -9.308103 -5.724351 -24.511843 -0.872127 -7.542156 30.599873 3.788409 1.285007 -14.390113 0.000000 -0.000000 0.000000 2.182234 3.793957 19.929919 2.426405 -4.065062 9.182036 1.228855 -0.672202 -3.658544 0.963464 9.584037 19.784527 4.506590 2.276832 16.085004 -16.093081 -24.286614 1.598734 -74.869217 -25.600074 26.168586 0.118613 -32.435466 10.207877 -9.689414 9.980795 -31.253979 16.327254 21.988880 6.303275 72.304620 23.223410 20.707001 -12.095422 30.820122 -15.333917 6.542986 0.876069 -53.949221 
0.251750 -0.367805 0.945193 176.696595 -0.215134 93.355493 8.915046 -0.693491 -23.783943 -6.039441 -0.396400 27.230394 0.798912 0.995128 -13.600592 0.000000 -0.000000 0.000000 -9.254601 -5.769610 -24.521278 -0.903298 -7.530793 30.577782 3.747683 1.330082 -14.397036 0.000000 -0.000000 0.000000 2.246772 3.719260 19.874558 2.371388 -4.108153 9.285253 1.197834 -0.615518 -3.704686 0.915982 9.545108 19.879898 4.533160 2.459707 16.008263 -16.108369 -24.332660 1.559806 -74.829504 -25.510691 26.140104 0.217072 -32.484752 10.142937 -9.668737 9.971657 -31.297813 16.280220 22.209512 6.299160 72.252532 23.144971 20.689644 -12.064254 30.825502 -15.389580 6.544645 0.780293 -53.768903 
0.251721 -0.367601 0.945279 176.715221 -0.222011 93.380354 8.911719 -0.696974 -23.791891 -6.043368 -0.390537 27.211352 0.790731 0.932369 -13.547583 0.000000 -0.000000 0.000000 -9.214473 -5.743590 -24.523410 -0.976233 -7.465568 30.550011 3.750168 1.265361 -14.407884 0.000000 -0.000000 0.000000 2.203348 3.745775 19.939388 2.401752 -4.095694 9.216523 1.243476 -0.621408 -3.731435 0.922349 9.476995 19.895042 4.525325 2.441236 16.130522 -16.066357 -24.298019 1.534390 -74.938918 -25.514807 26.182087 0.216821 -32.381849 10.265779 -9.940195 9.736932 -31.259080 16.190578 22.217781 6.268008 72.302438 23.053497 20.746573 -12.138971 30.841119 -15.465780 6.653842 0.866864 -53.766714 
0.251681 -0.367289 0.945380 176.723220 -0.270734 93.283753 8.814591 -0.689123 -23.657682 -5.978132 -0.384120 27.178330 0.748630 0.960709 -13.643361 0.000000 -0.000000 0.000000 -9.290615 -5.682577 -24.377048 -0.970570 -7.486226 30.530149 3.729123 1.231322 -14.428886 0.000000 -0.000000 0.000000 2.190584 3.680367 20.119043 2.362995 -4.152254 9.308165 1.227036 -0.568657 -3.878570 0.956552 9.499356 19.793936 4.430123 2.329153 16.303391 -15.943872 -24.250465 1.466818 -74.995099 -25.470523 26.111849 0.188990 -32.414780 10.464902 -10.252435 9.594395 -31.308583 16.073195 22.272150 6.351579 72.476142 23.147153 20.755255 -12.226830 30.782884 -15.410775 6.787799 0.952343 -53.875729 
0.251741 -0.366961 0.945510 176.776665 -0.266559 93.343954 8.829336 -0.699437 -23.689717 -6.013707 -0.428350 27.138094 0.741465 0.934168 -13.559281 0.000000 -0.000000 0.000000 -9.296764 -5.666426 -24.381150 -0.964599 -7.533946 30.488582 3.751300 1.164023 -14.456692 0.000000 -0.000000 0.000000 2.167226 3.667610 20.067918 2.385472 -4.159681 9.265941 1.233220 -0.544741 -3.864692 0.953923 9.470857 19.822184 4.533454 2.294001 16.269455 -16.038222 -24.222123 1.480490 -74.926770 -25.457711 26.135495 0.048711 -32.428176 10.513955 -10.017049 9.591240 -31.259248 16.183794 22.201692 6.412076 72.400084 23.140296 20.736992 -12.203798 30.825642 -15.425458 6.579843 0.952989 -53.974730 
0.251885 -0.366732 0.945447 176.813443 -0.233302 93.453389 8.872166 -0.677165 -23.807361 -5.988032 -0.378763 27.145519 0.756892 0.889387 -13.583850 0.000000 -0.000000 0.000000 -9.255576 -5.671117 -24.469702 -0.955982 -7.566328 30.483026 3.735535 1.149951 -14.504162 0.000000 -0.000000 0.000000 2.178544 3.666244 19.879525 2.405053 -4.188825 9.348481 1.224164 -0.542389 -3.890870 0.960539 9.459983 19.929366 4.579554 2.369255 16.206523 -16.131052 -24.247752 1.512345 -74.890519 -25.465031 26.149943 0.065528 -32.339214 10.337834 -9.784074 9.667213 -31.251565 16.277275 22.215566 6.535671 72.264938 23.188257 20.739388 -12.114935 30.846216 -15.372475 6.325623 0.885686 -54.012862 
0.252034 -0.366540 0.945515 176.812202 -0.217988 93.481244 8.888774 -0.620928 -23.817308 -5.983874 -0.358507 27.137189 0.743734 0.837880 -13.570257 0.000000 -0.000000 0.000000 -9.216662 -5.675271 -24.489215 -0.975568 -7.586288 30.490059 3.749844 1.178497 -14.495391 0.000000 -0.000000 0.000000 2.174027 3.696720 19.895995 2.419825 -4.156426 9.270525 1.256253 -0.558694 -3.859533 0.936063 9.463159 19.980481 4.589006 2.360826 16.137503 -16.139125 -24.264654 1.557642 -74.843144 -25.488582 26.106687 0.008263 -32.302582 10.343171 -9.788864 9.622028 -31.087995 16.305852 22.187021 6.570850 72.205128 23.192529 20.689026 -12.045807 30.909581 -15.307286 6.231758 0.805563 -53.890644 
0.252270 -0.366426 0.945685 176.804247 -0.197138 93.540470 8.925120 -0.528756 -23.872600 -5.964096 -0.304187 27.128482 0.664008 0.718195 -13.553461 0.000000 -0.000000 0.000000 -9.123228 -5.632046 -24.507323 -1.079421 -7.597186 30.408104 3.761037 1.192325 -14.448018 0.000000 -0.000000 0.000000 2.223908 3.736031 19.901771 2.372995 -4.118310 9.247731 1.257455 -0.579051 -3.918694 0.892730 9.374981 20.154273 4.663188 2.381769 15.885542 -16.169688 -24.336082 1.676189 -74.737098 -25.522654 26.009718 -0.097572 -32.230269 10.691574 -9.828806 9.457771 -30.813965 16.377880 22.136570 6.534658 72.095376 23.128716 20.524117 -11.727421 31.004929 -15.020008 5.934652 0.748195 -53.786889 
0.252365 -0.366401 0.945848 176.793537 -0.210079 93.550868 8.897784 -0.482152 -23.834220 -5.921859 -0.271946 27.043775 0.641368 0.694973 -13.548582 0.000000 -0.000000 0.000000 -9.105452 -5.593854 -24.478969 -1.117729 -7.584195 30.332531 3.734841 1.208812 -14.459124 0.000000 -0.000000 0.000000 2.195482 3.711965 20.014186 2.363585 -4.118685 9.213973 1.256872 -0.495169 -4.023835 0.907656 9.406470 20.213293 4.708988 2.374982 15.854883 -16.142410 -24.307764 1.673369 -74.761163 -25.519486 26.014731 -0.199017 -32.170633 10.807205 -9.684311 9.393102 -30.725309 16.361544 22.130518 6.637268 72.109385 23.158194 20.521111 -11.679104 31.080436 -14.916560 5.747938 0.674109 -53.933171 
0.252404 -0.366354 0.946039 176.797876 -0.224383 93.543749 8.842807 -0.443907 -23.758624 -5.927624 -0.422285 26.915623 0.645906 0.717378 -13.456980 0.000000 -0.000000 0.000000 -9.168387 -5.652938 -24.417061 -1.030634 -7.646966 30.253152 3.741628 1.275185 -14.399562 0.000000 -0.000000 0.000000 2.154163 3.686980 19.989258 2.361594 -4.153900 9.361075 1.272364 -0.466140 -4.099546 0.922304 9.337626 20.232681 4.676731 2.381312 15.944487 -16.106423 -24.309743 1.659028 -74.766598 -25.475732 25.980119 -0.072872 -32.207674 10.922846 -9.613122 9.504061 -30.666271 16.366550 22.252158 6.697589 72.181268 23.250160 20.485877 -11.769887 30.909208 -14.990797 5.800884 0.725210 -53.967651 
